<svg width="112" height="113" viewBox="0 0 112 113" fill="none" xmlns="http://www.w3.org/2000/svg">
<g filter="url(#filter0_d_1469_1635)">
<path d="M56.0542 92.0149C78.1156 92.0149 95.9758 74.1063 95.9459 52.0149C95.916 29.9235 78.0074 12.0149 55.9459 12.0149C33.8844 12.0149 16.0242 29.9235 16.0541 52.0149C16.084 74.1063 33.9927 92.0149 56.0542 92.0149Z" fill="url(#paint0_linear_1469_1635)"/>
<path d="M93.4459 52.0149C93.474 72.7288 76.7284 89.5149 56.0508 89.5149C35.3732 89.5149 18.5821 72.7288 18.5541 52.0149C18.5261 31.301 35.2717 14.5149 55.9493 14.5149C76.6269 14.5149 93.4179 31.301 93.4459 52.0149Z" stroke="white" stroke-width="5"/>
</g>
<path d="M40.376 36.446C40.07 36.752 40.07 65.228 40.376 65.534C40.628 65.786 64.028 65.84 64.424 65.588C64.568 65.498 64.64 65.21 64.604 64.922L64.55 64.4L53.084 64.346L41.6 64.31V50.99V37.67H50.96H60.32L60.356 40.766L60.41 43.88L63.704 43.934L66.98 43.97V51.584C66.98 55.76 67.052 59.288 67.142 59.414C67.232 59.558 67.52 59.63 67.808 59.594L68.33 59.54L68.384 51.242L68.42 42.944L65.954 40.604C64.586 39.326 62.966 37.814 62.354 37.256L61.22 36.23H50.906C43.13 36.23 40.538 36.284 40.376 36.446ZM63.938 40.766L65.792 42.53H63.776H61.76V40.712C61.76 39.722 61.832 38.93 61.922 38.966C61.994 38.984 62.912 39.812 63.938 40.766Z" fill="white"/>
<path d="M43.3284 39.8841C43.1304 40.0281 43.0224 40.2981 43.0764 40.5681L43.1304 41.0001L50.7624 41.0541C56.2344 41.0721 58.4664 41.0361 58.6284 40.8921C58.9524 40.6221 58.9524 40.2801 58.5924 39.9381C58.3584 39.6861 57.4044 39.6501 50.9784 39.6501C45.2364 39.6501 43.5804 39.7041 43.3284 39.8841Z" fill="white"/>
<path d="M43.1112 43.3401C42.8592 44.3481 42.7872 44.3301 50.9772 44.3301H58.5192L58.7352 43.8801C58.8792 43.5381 58.8792 43.3761 58.6992 43.1601C58.5012 42.9261 57.4752 42.8901 50.8512 42.8901H43.2192L43.1112 43.3401Z" fill="white"/>
<path d="M43.256 46.166C42.968 46.454 42.986 46.94 43.292 47.192C43.454 47.336 46.532 47.372 54.47 47.354C64.658 47.3 65.432 47.282 65.612 46.976C65.756 46.76 65.756 46.58 65.612 46.346C65.432 46.058 64.658 46.04 54.434 45.986C46.064 45.95 43.418 46.004 43.256 46.166Z" fill="white"/>
<path d="M43.256 49.4061C42.968 49.6941 42.986 50.1801 43.292 50.4321C43.454 50.5761 44.966 50.6301 48.44 50.5941C52.886 50.5401 53.372 50.5041 53.552 50.2161C53.696 50.0001 53.696 49.8201 53.552 49.5861C53.372 49.3161 52.886 49.2801 48.422 49.2261C44.732 49.1901 43.418 49.2441 43.256 49.4061Z" fill="white"/>
<path d="M57.6209 49.352C55.8929 49.91 54.4349 51.188 53.6789 52.772C53.2829 53.636 53.2109 54.014 53.2109 55.49C53.2109 56.894 53.3009 57.362 53.6429 58.136C54.1469 59.27 55.6769 60.764 56.8469 61.286C58.0529 61.826 59.8709 61.916 61.3289 61.52C62.4629 61.214 62.4989 61.214 62.8769 61.538C63.0749 61.736 63.4709 62.294 63.7589 62.78C64.5329 64.148 67.9709 67.46 68.8889 67.73C70.8869 68.324 72.5069 66.326 71.5709 64.472C71.0309 63.446 68.0789 60.566 66.7649 59.792C65.2169 58.892 65.0909 58.64 65.4689 57.47C65.8829 56.21 65.7389 53.906 65.1989 52.772C64.5869 51.494 63.7049 50.576 62.4449 49.91C61.4369 49.352 61.1309 49.298 59.6909 49.244C58.8089 49.226 57.8729 49.262 57.6209 49.352ZM60.8969 50.81C62.6429 51.296 64.0829 53.114 64.2269 55.004C64.4069 57.11 63.3449 59 61.4909 59.9C59.1329 61.034 56.2709 59.99 55.0829 57.542C54.5969 56.552 54.5249 56.264 54.5969 55.274C54.6869 53.87 55.1369 52.934 56.1269 51.944C57.3329 50.774 59.1689 50.342 60.8969 50.81ZM68.4569 63.248C69.6809 64.454 70.4009 65.3 70.4009 65.534C70.4009 65.984 69.7709 66.47 69.3209 66.344C68.8349 66.218 65.2709 62.528 64.8569 61.7C64.6589 61.304 64.3349 60.818 64.1189 60.638C63.8489 60.386 63.7949 60.224 63.9209 60.08C64.2449 59.684 66.3689 61.178 68.4569 63.248Z" fill="white"/>
<path d="M60.1034 54.572L58.9694 56.714L58.2494 56.102C57.2774 55.274 56.3594 55.346 56.3594 56.228C56.3594 56.606 58.7354 58.55 59.2034 58.55C59.6714 58.55 59.7074 58.496 61.2194 55.688C62.6414 53.024 62.7494 52.43 61.7594 52.43C61.2734 52.43 61.1654 52.592 60.1034 54.572Z" fill="white"/>
<path d="M43.256 52.466C42.968 52.754 42.986 53.24 43.292 53.492C43.454 53.636 44.75 53.69 47.558 53.654L51.59 53.6V52.97V52.34L47.54 52.286C44.534 52.25 43.418 52.304 43.256 52.466Z" fill="white"/>
<path d="M43.1134 55.76C42.8794 56.696 43.1134 56.75 47.1634 56.75C49.1974 56.75 50.9794 56.678 51.1054 56.588C51.2494 56.498 51.3214 56.21 51.2854 55.922L51.2314 55.4L47.2354 55.346L43.2214 55.31L43.1134 55.76Z" fill="white"/>
<path d="M43.1107 59C42.8767 59.954 43.0567 59.99 47.7367 59.99C51.3907 59.99 52.0567 59.954 52.2907 59.702C52.4527 59.558 52.5787 59.324 52.5787 59.198C52.5787 58.604 52.1647 58.55 47.6827 58.55H43.2187L43.1107 59Z" fill="white"/>
<path d="M43.1674 61.736C42.9154 61.97 43.0594 62.69 43.3834 62.87C43.5994 62.978 45.7594 63.05 49.1074 63.05C54.9214 63.05 55.1914 63.014 55.0654 62.132L55.0114 61.7L49.1434 61.646C45.9214 61.628 43.2394 61.664 43.1674 61.736Z" fill="white"/>
<defs>
<filter id="filter0_d_1469_1635" x="0.0546875" y="0.0148926" width="111.891" height="112" filterUnits="userSpaceOnUse" color-interpolation-filters="sRGB">
<feFlood flood-opacity="0" result="BackgroundImageFix"/>
<feColorMatrix in="SourceAlpha" type="matrix" values="0 0 0 0 0 0 0 0 0 0 0 0 0 0 0 0 0 0 127 0" result="hardAlpha"/>
<feOffset dy="4"/>
<feGaussianBlur stdDeviation="8"/>
<feComposite in2="hardAlpha" operator="out"/>
<feColorMatrix type="matrix" values="0 0 0 0 0 0 0 0 0 0 0 0 0 0 0 0 0 0 0.15 0"/>
<feBlend mode="normal" in2="BackgroundImageFix" result="effect1_dropShadow_1469_1635"/>
<feBlend mode="normal" in="SourceGraphic" in2="effect1_dropShadow_1469_1635" result="shape"/>
</filter>
<linearGradient id="paint0_linear_1469_1635" x1="55.9459" y1="12.0149" x2="57.7666" y2="153.835" gradientUnits="userSpaceOnUse">
<stop stop-color="#1643C3"/>
<stop offset="1"/>
</linearGradient>
</defs>
</svg>
