<svg width="112" height="113" viewBox="0 0 112 113" fill="none" xmlns="http://www.w3.org/2000/svg">
<g filter="url(#filter0_d_1469_1603)">
<path d="M56.0542 92.0149C78.1156 92.0149 95.9758 74.1063 95.9459 52.0149C95.916 29.9235 78.0074 12.0149 55.9459 12.0149C33.8844 12.0149 16.0242 29.9235 16.0541 52.0149C16.084 74.1063 33.9927 92.0149 56.0542 92.0149Z" fill="url(#paint0_linear_1469_1603)"/>
<path d="M93.4459 52.0149C93.474 72.7288 76.7284 89.5149 56.0508 89.5149C35.3732 89.5149 18.5821 72.7288 18.5541 52.0149C18.5261 31.301 35.2717 14.5149 55.9493 14.5149C76.6269 14.5149 93.4179 31.301 93.4459 52.0149Z" stroke="white" stroke-width="5"/>
</g>
<g clip-path="url(#clip0_1469_1603)">
<path d="M55.0717 33.193C53.7432 33.8239 53.3869 35.5606 54.3592 36.6739C54.9678 37.3567 56.1182 37.5719 56.9791 37.1489C57.7584 36.7629 58.1814 36.0876 58.1814 35.2044C58.1814 34.3137 57.7139 33.5641 56.9272 33.193C56.6377 33.0594 56.4299 33.0149 55.9994 33.0149C55.5689 33.0149 55.3611 33.0594 55.0717 33.193ZM56.6229 34.4251C56.9939 34.7516 57.0904 35.093 56.9272 35.5087C56.7639 35.9391 56.4373 36.1692 55.9994 36.1692C55.5615 36.1692 55.235 35.9391 55.0717 35.5087C54.9084 35.093 55.0049 34.7516 55.376 34.4251C55.5912 34.2395 55.6951 34.2024 55.9994 34.2024C56.3037 34.2024 56.4076 34.2395 56.6229 34.4251Z" fill="white"/>
<path d="M43.353 38.0321C42.826 38.1954 42.1729 38.8634 42.017 39.3978C41.8612 39.9321 41.8686 40.422 42.0467 40.897C42.2545 41.4536 42.5737 41.8025 43.1229 42.0771C43.5534 42.2849 43.6424 42.3071 44.1768 42.2775C45.4385 42.2181 46.2104 41.4462 46.2698 40.1919C46.292 39.665 46.2698 39.5685 46.062 39.138C45.9284 38.8708 45.7057 38.5591 45.5498 38.4329C44.9635 37.9505 44.1248 37.8021 43.353 38.0321ZM44.5405 39.2196C45.2456 39.5536 45.2678 40.6372 44.5776 40.9935C43.6944 41.4462 42.7295 40.4739 43.2342 39.6353C43.5311 39.1528 44.0432 38.9896 44.5405 39.2196Z" fill="white"/>
<path d="M67.0954 38.0618C66.5536 38.2696 66.2048 38.5962 65.9376 39.138C65.7298 39.5684 65.7075 39.6575 65.7372 40.1919C65.7966 41.4536 66.5684 42.2255 67.8227 42.2848C68.3497 42.3071 68.4462 42.2848 68.8766 42.077C69.886 41.5798 70.3165 40.5259 69.9825 39.3977C69.8192 38.8411 69.1735 38.1954 68.6169 38.0321C68.0899 37.8763 67.5556 37.8911 67.0954 38.0618ZM68.3794 39.2493C68.8618 39.5462 69.0251 40.0583 68.795 40.5555C68.4684 41.2384 67.4516 41.2903 67.0583 40.6372C66.5239 39.7688 67.5184 38.7298 68.3794 39.2493Z" fill="white"/>
<path d="M54.7603 39.6427C53.8845 40.5184 53.8474 40.5704 53.8474 40.8599C53.8474 41.1048 53.8845 41.2013 54.0403 41.32C54.3521 41.5649 54.5524 41.5204 55.0052 41.0974L55.406 40.7114V42.4184V44.1181L54.7751 44.2071C53.5653 44.3852 52.3927 44.8602 51.3833 45.5802L50.8192 45.9809L49.654 44.8157L48.4888 43.6505L49.0232 43.5985C49.3942 43.5614 49.5946 43.502 49.6985 43.3981C49.8915 43.2052 49.8841 42.7821 49.6911 42.5892C49.5501 42.4481 49.4462 42.4407 48.1771 42.4407C46.9153 42.4407 46.804 42.4481 46.6185 42.5966L46.4255 42.745V44.1477V45.5505L46.6185 45.6989C47.138 46.1071 47.613 45.7435 47.613 44.9493V44.556L48.7708 45.7138L49.9212 46.8642L49.4536 47.5692C48.7411 48.6306 48.2958 49.8181 48.1622 50.9684L48.1103 51.4212H46.4552C45.5423 51.4212 44.7927 51.3989 44.7927 51.3767C44.7927 51.347 44.9411 51.1614 45.1267 50.9684C45.3122 50.7755 45.4607 50.5454 45.4607 50.4638C45.4607 50.0407 45.0821 49.729 44.6962 49.8255C44.5774 49.8552 44.147 50.2559 43.6052 50.8349C42.4103 52.1188 42.4028 52.0372 43.6274 53.2544C44.5032 54.1302 44.5552 54.1673 44.8446 54.1673C45.0896 54.1673 45.186 54.1302 45.3048 53.9743C45.5497 53.6626 45.5052 53.4622 45.0821 53.0095L44.6962 52.6087H46.4032H48.1103L48.1993 53.2099C48.3849 54.4196 48.8524 55.5626 49.5798 56.5794L49.9954 57.1583L48.8228 58.3384C48.1771 58.9841 47.6427 59.4739 47.6353 59.422C47.6278 59.37 47.5982 59.1325 47.5759 58.895C47.5165 58.3903 47.3532 58.1751 47.0118 58.1751C46.7001 58.1751 46.5294 58.2864 46.4552 58.5239C46.4181 58.6427 46.4032 59.3032 46.4255 60.0009C46.4774 61.7153 46.3439 61.5892 48.1399 61.5892H49.5353L49.6837 61.3962C50.0919 60.8767 49.7282 60.4017 48.9341 60.4017H48.5407L49.7208 59.2216L50.8935 58.0489L51.5763 58.5017C52.6153 59.1993 53.8103 59.6446 54.9532 59.7782L55.406 59.8302V61.5224C55.406 62.4575 55.3837 63.222 55.3614 63.222C55.3317 63.222 55.1462 63.0735 54.9532 62.888C54.7603 62.7024 54.5302 62.554 54.4485 62.554C54.0255 62.554 53.7138 62.9325 53.8103 63.3184C53.8399 63.4372 54.2407 63.8677 54.8196 64.4095C56.1036 65.6044 56.022 65.6118 57.2392 64.3872C58.1149 63.5114 58.1521 63.4595 58.1521 63.17C58.1521 62.9251 58.1149 62.8286 57.9591 62.7099C57.6474 62.4649 57.447 62.5095 56.9942 62.9325L56.5935 63.3184V61.5817V59.8376L57.3134 59.7188C58.1669 59.5704 58.4044 59.4294 58.4341 59.0434C58.4489 58.8356 58.4118 58.7317 58.2708 58.5833C58.0556 58.3681 57.9962 58.3606 57.2689 58.5091C56.4821 58.6798 55.2501 58.6575 54.4708 58.472C53.2239 58.1825 52.0735 57.5145 51.1681 56.572C49.9138 55.2583 49.32 53.7813 49.32 51.9778C49.32 50.1001 50.0103 48.4895 51.3685 47.1833C52.0067 46.5821 52.4298 46.2927 53.2091 45.9216C54.931 45.12 56.9942 45.12 58.7161 45.9216C59.4954 46.2927 59.9185 46.5821 60.5567 47.1833C61.9001 48.4747 62.6052 50.1001 62.6052 51.9259C62.6052 54.0188 61.8333 55.6739 60.1782 57.1286C59.8739 57.3958 59.6142 57.6852 59.5919 57.7817C59.5177 58.0638 59.6958 58.3903 59.963 58.4571C60.2376 58.5388 60.4603 58.4645 60.8239 58.1751L61.0911 57.9599L62.3009 59.1696L63.5107 60.3794L62.9763 60.4313C62.6052 60.4684 62.4048 60.5278 62.3009 60.6317C62.1079 60.8247 62.1153 61.2477 62.3083 61.4407C62.4493 61.5817 62.5532 61.5892 63.8224 61.5892C65.0841 61.5892 65.1954 61.5817 65.381 61.4333L65.5739 61.2849V59.8821V58.4794L65.381 58.3309C64.8614 57.9227 64.3864 58.2864 64.3864 59.0806V59.4739L63.1915 58.279L61.9966 57.0841L62.4271 56.4606C63.1247 55.429 63.5478 54.3899 63.7259 53.2099L63.8149 52.6087H65.5146C66.4423 52.6087 67.2067 52.6309 67.2067 52.6532C67.2067 52.6829 67.0583 52.8685 66.8728 53.0614C66.6872 53.2544 66.5388 53.4845 66.5388 53.5661C66.5388 53.9892 66.9173 54.3009 67.3032 54.2044C67.422 54.1747 67.8524 53.7739 68.3942 53.195C69.5892 51.911 69.5966 51.9927 68.372 50.7755C67.4962 49.8997 67.4442 49.8626 67.1548 49.8626C66.9099 49.8626 66.8134 49.8997 66.6946 50.0556C66.4497 50.3673 66.4942 50.5677 66.9173 51.0204L67.3032 51.4212H65.5591H63.8149L63.763 50.9684C63.6294 49.8181 63.1841 48.6306 62.4716 47.5692L62.004 46.8642L63.1767 45.6915C63.8224 45.0458 64.3567 44.556 64.3642 44.6079C64.3716 44.6599 64.4013 44.8974 64.4235 45.1349C64.4829 45.6395 64.6462 45.8548 64.9876 45.8548C65.2993 45.8548 65.47 45.7435 65.5442 45.5059C65.5814 45.3872 65.5962 44.7267 65.5739 44.029C65.522 42.3145 65.6556 42.4407 63.8595 42.4407H62.4642L62.3157 42.6337C61.9075 43.1532 62.2712 43.6282 63.0653 43.6282H63.4587L62.2786 44.8083L61.106 45.9809L60.5419 45.5802C59.5474 44.8677 58.397 44.4001 57.1946 44.2145L56.5935 44.1255V42.463C56.5935 41.5501 56.6157 40.8079 56.638 40.8079C56.6677 40.8079 56.8532 40.9563 57.0462 41.1419C57.2392 41.3274 57.4692 41.4759 57.5509 41.4759C57.9739 41.4759 58.2857 41.0974 58.1892 40.7114C58.1595 40.5927 57.7587 40.1622 57.1798 39.6204C55.8958 38.4255 55.9774 38.4181 54.7603 39.6427Z" fill="white"/>
<path d="M54.9177 46.4411C54.7099 46.5301 54.5169 46.8047 54.5169 47.0125C54.5169 47.1016 54.5837 47.2575 54.6727 47.3688C54.8212 47.5543 54.836 47.5618 55.7267 47.5618C56.313 47.5543 56.788 47.5989 57.07 47.6731C58.5692 48.0665 59.8755 49.3801 60.2614 50.8719C60.4099 51.4583 60.4099 52.4973 60.2614 53.0836C59.972 54.2118 59.0665 55.3547 58.0423 55.8891C56.2759 56.8094 54.2497 56.4977 52.847 55.095C51.9638 54.2118 51.5481 53.2247 51.5481 51.9926C51.5481 50.6938 51.9563 49.7364 52.936 48.7715C53.5001 48.2149 53.552 48.1407 53.552 47.8735C53.552 47.5024 53.3739 47.3391 52.9806 47.3391C52.7134 47.3391 52.6243 47.3911 52.1567 47.829C51.5333 48.4004 51.0434 49.1055 50.7391 49.87C50.42 50.679 50.3384 51.2059 50.3755 52.2524C50.4052 52.9872 50.4497 53.2766 50.613 53.759C50.9024 54.6051 51.3403 55.3102 51.986 55.9559C52.6317 56.5942 53.3294 57.0321 54.1829 57.3364C54.7395 57.5293 54.8509 57.5442 55.9642 57.5442C57.0774 57.5442 57.1888 57.5293 57.7454 57.3364C58.5989 57.0321 59.2966 56.5942 59.9423 55.9559C60.5806 55.3102 61.0184 54.6125 61.3227 53.759C61.5157 53.2024 61.5306 53.0911 61.5306 51.9778C61.5306 50.8645 61.5157 50.7532 61.3227 50.1965C61.0184 49.343 60.5806 48.6454 59.9423 47.9997C59.2966 47.354 58.5915 46.9161 57.7454 46.6266C57.2333 46.4485 57.0106 46.4188 56.1126 46.3965C55.5411 46.3891 54.9993 46.404 54.9177 46.4411Z" fill="white"/>
<path d="M38.6847 49.8625C38.0167 50.0333 37.4304 50.5157 37.1557 51.1243C36.9331 51.6141 36.9405 52.4454 37.178 52.9426C37.6975 54.0411 39.0557 54.5235 40.1319 53.9965C40.9261 53.6106 41.3417 52.9278 41.3417 52.0149C41.3417 51.384 41.1858 50.961 40.7925 50.5083C40.3323 49.9887 39.3749 49.6918 38.6847 49.8625ZM39.7534 51.2059C39.9761 51.3618 40.1913 51.7625 40.1913 52.0149C40.1913 52.668 39.4268 53.2024 38.8405 52.9575C38.1948 52.6903 37.9722 51.911 38.3878 51.4137C38.7663 50.9684 39.3007 50.8793 39.7534 51.2059Z" fill="white"/>
<path d="M72.2382 49.8848C70.3011 50.434 70.0636 53.1133 71.8671 53.9965C72.9432 54.5235 74.3014 54.0411 74.821 52.9426C74.9546 52.6532 74.9991 52.4454 74.9991 52.0149C74.9991 51.3469 74.7987 50.8645 74.3608 50.4415C73.8116 49.9145 72.9432 49.6918 72.2382 49.8848ZM73.1659 51.0797C73.819 51.3469 74.0268 52.1336 73.5889 52.6383C73.2624 53.0094 72.921 53.1059 72.5054 52.9426C71.6518 52.6161 71.585 51.5547 72.4014 51.1391C72.7874 50.9461 72.8468 50.9387 73.1659 51.0797Z" fill="white"/>
<path d="M43.1015 61.9677C42.1144 62.4575 41.684 63.5114 42.018 64.6321C42.1812 65.1887 42.8269 65.8345 43.3836 65.9977C43.918 66.1536 44.4078 66.1462 44.8828 65.968C45.4023 65.7751 45.7512 65.4782 46.0183 64.9958C46.2187 64.6321 46.241 64.5282 46.241 63.927C46.241 63.1329 46.0629 62.7098 45.5508 62.2497C45.15 61.9009 44.6824 61.7376 44.0515 61.7376C43.6433 61.7376 43.4726 61.7821 43.1015 61.9677ZM44.5785 63.0364C45.2687 63.3927 45.2465 64.4762 44.5414 64.8102C44.0441 65.0403 43.532 64.877 43.2351 64.3946C42.7305 63.5559 43.6953 62.5837 44.5785 63.0364Z" fill="white"/>
<path d="M67.0806 61.8564C66.6649 62.0048 66.1677 62.4576 65.945 62.8955C65.8114 63.1627 65.752 63.4076 65.7372 63.838C65.7075 64.365 65.7298 64.4615 65.9376 64.892C66.4348 65.8939 67.4962 66.3318 68.6169 65.9978C69.1735 65.8345 69.8192 65.1888 69.9825 64.6322C70.1384 64.0978 70.1309 63.608 69.9528 63.133C69.745 62.5838 69.4333 62.2275 68.8989 61.9677C68.513 61.7748 68.3645 61.7377 67.9192 61.7451C67.6298 61.7451 67.2513 61.797 67.0806 61.8564ZM68.4313 63.0736C68.7059 63.2443 68.9138 63.6228 68.9138 63.942C68.9138 64.224 68.6688 64.6025 68.3794 64.7806C67.5407 65.2853 66.5684 64.3205 67.0212 63.4373C67.2735 62.9548 67.9563 62.7841 68.4313 63.0736Z" fill="white"/>
<path d="M55.2807 66.7696C54.5237 67.0442 54.0042 67.6231 53.8483 68.395C53.6405 69.3747 54.16 70.4063 55.0729 70.8368C55.5924 71.0817 56.4088 71.0817 56.9284 70.8368C58.2569 70.206 58.6131 68.4692 57.6409 67.356C57.1065 66.7548 56.06 66.4876 55.2807 66.7696ZM56.5795 68.0388C57.1065 68.4099 57.1288 69.1595 56.6315 69.5974C56.4088 69.7903 56.3049 69.8274 56.0006 69.8274C55.6963 69.8274 55.5924 69.7903 55.3698 69.5974C55.2288 69.4712 55.0729 69.2411 55.0284 69.0853C54.9541 68.8329 54.9616 68.7587 55.1174 68.4396C55.4217 67.8384 56.0526 67.6603 56.5795 68.0388Z" fill="white"/>
</g>
<defs>
<filter id="filter0_d_1469_1603" x="0.0546875" y="0.0148926" width="111.891" height="112" filterUnits="userSpaceOnUse" color-interpolation-filters="sRGB">
<feFlood flood-opacity="0" result="BackgroundImageFix"/>
<feColorMatrix in="SourceAlpha" type="matrix" values="0 0 0 0 0 0 0 0 0 0 0 0 0 0 0 0 0 0 127 0" result="hardAlpha"/>
<feOffset dy="4"/>
<feGaussianBlur stdDeviation="8"/>
<feComposite in2="hardAlpha" operator="out"/>
<feColorMatrix type="matrix" values="0 0 0 0 0 0 0 0 0 0 0 0 0 0 0 0 0 0 0.15 0"/>
<feBlend mode="normal" in2="BackgroundImageFix" result="effect1_dropShadow_1469_1603"/>
<feBlend mode="normal" in="SourceGraphic" in2="effect1_dropShadow_1469_1603" result="shape"/>
</filter>
<linearGradient id="paint0_linear_1469_1603" x1="55.9459" y1="12.0149" x2="57.7666" y2="153.835" gradientUnits="userSpaceOnUse">
<stop stop-color="#1643C3"/>
<stop offset="1"/>
</linearGradient>
<clipPath id="clip0_1469_1603">
<rect width="38" height="38" fill="white" transform="translate(37 33.0149)"/>
</clipPath>
</defs>
</svg>
