<svg width="112" height="113" viewBox="0 0 112 113" fill="none" xmlns="http://www.w3.org/2000/svg">
<g filter="url(#filter0_d_1469_1655)">
<path d="M56.0542 92.0149C78.1156 92.0149 95.9758 74.1063 95.9459 52.0149C95.916 29.9235 78.0074 12.0149 55.9459 12.0149C33.8844 12.0149 16.0242 29.9235 16.0541 52.0149C16.084 74.1063 33.9927 92.0149 56.0542 92.0149Z" fill="url(#paint0_linear_1469_1655)"/>
<path d="M93.4459 52.0149C93.474 72.7288 76.7284 89.5149 56.0508 89.5149C35.3732 89.5149 18.5821 72.7288 18.5541 52.0149C18.5261 31.301 35.2717 14.5149 55.9493 14.5149C76.6269 14.5149 93.4179 31.301 93.4459 52.0149Z" stroke="white" stroke-width="5"/>
</g>
<g clip-path="url(#clip0_1469_1655)">
<path d="M53.2271 34.8249C49.6631 35.8149 46.6751 38.9109 45.8291 42.5109C45.3071 44.7249 45.5951 47.3709 46.5491 49.3869C47.0531 50.4309 47.1251 50.2869 45.3791 51.5109L44.1911 52.3389L43.6691 51.9609C43.3091 51.6909 42.8051 51.5469 42.0311 51.5109C41.0411 51.4389 40.7711 51.4929 40.0691 51.9069C39.0251 52.5189 38.5391 53.4549 38.5391 54.8049C38.5391 56.3169 39.1691 57.2709 40.5551 57.8649C42.9851 58.8729 45.5231 56.7849 45.1271 54.1209L45.0011 53.3469L46.3691 52.3929L47.7371 51.4389L48.9071 52.5369C49.5371 53.1489 50.1491 53.6349 50.2391 53.6349C50.5811 53.6349 50.4011 54.1029 48.7991 57.1269L47.1611 60.2049L46.3871 60.1509C43.4531 59.9169 41.7071 63.4989 43.6871 65.6949C45.2711 67.4409 48.2231 67.0269 49.1771 64.9029C49.7351 63.6789 49.5191 62.2749 48.6011 60.9969C48.4211 60.7629 48.6551 60.2049 49.8791 57.9009C51.8411 54.1929 51.6071 54.4629 52.5791 54.8049C53.0291 54.9669 53.8031 55.1469 54.2891 55.2189L55.1891 55.3449L55.2431 59.1429L55.2791 62.9229L54.6671 63.1389C53.3711 63.6069 52.4171 65.3349 52.6691 66.7929C52.8311 67.6929 53.6411 68.7909 54.4331 69.1689C55.2431 69.5649 56.7551 69.5649 57.5651 69.1689C58.8791 68.5569 59.6351 66.7929 59.2391 65.3169C58.9871 64.4169 58.1411 63.4269 57.3311 63.1389L56.7191 62.9229V59.1789V55.4349L57.2231 55.3449C58.2671 55.1289 59.7071 54.7509 59.9951 54.6249C60.3191 54.4989 60.5891 54.9309 62.6411 58.8729L63.6131 60.7449L63.1091 61.5189C61.3631 64.1649 63.5231 67.2969 66.7091 66.7029C67.4291 66.5589 68.4911 65.7129 68.8871 64.9569C69.2111 64.3269 69.2111 62.7969 68.8871 62.0409C68.4011 60.8709 66.8891 60.0249 65.5391 60.1509L64.8371 60.2049L63.1451 57.0189C62.2091 55.2549 61.5071 53.8149 61.5791 53.8149C61.6511 53.8149 62.2991 53.2749 63.0011 52.6269L64.2611 51.4569L65.6291 52.3929L66.9791 53.3469L66.8711 54.1749C66.7091 55.3809 67.0511 56.3709 67.8611 57.1089C69.4631 58.5489 71.6051 58.4049 72.8651 56.7669C73.5671 55.8309 73.6571 54.0489 73.0631 53.0049C72.1991 51.5289 70.0031 50.9709 68.4551 51.8349L67.7351 52.2309L66.3671 51.2949C65.5931 50.7909 64.9991 50.3229 65.0351 50.2509C66.3671 47.7129 66.7271 45.2289 66.1871 42.6369C65.3951 38.9649 62.3531 35.7969 58.6991 34.8249C57.4751 34.5009 54.4331 34.5009 53.2271 34.8249ZM58.2491 36.0669C61.1831 36.8589 63.5591 39.0189 64.6391 41.8989C65.1791 43.3209 65.3051 45.4809 64.9271 46.9569C64.4591 48.7929 63.0191 51.1869 63.0191 50.1429C63.0191 49.6029 62.2811 48.2709 61.6151 47.6049C60.8051 46.7769 59.3831 46.0929 58.1951 45.9489L57.3131 45.8589L56.7011 46.8669C56.3591 47.4249 56.0531 47.8749 55.9991 47.8749C55.9451 47.8749 55.6391 47.4249 55.2971 46.8669L54.6851 45.8589L53.8211 45.9489C52.6331 46.0929 51.3731 46.6689 50.5271 47.4789C49.8251 48.1629 48.9971 49.6749 48.9791 50.3049C48.9611 50.6289 48.9431 50.6289 48.6011 50.2149C47.6291 49.0629 46.8191 46.6689 46.8191 44.9589C46.8191 41.9349 48.6551 38.6589 51.2291 37.1469C53.3711 35.9049 56.0891 35.4729 58.2491 36.0669ZM54.7931 48.5049C55.4051 49.5129 55.6391 49.7649 55.9991 49.7649C56.3411 49.7649 56.5931 49.5129 57.2231 48.5049C57.8891 47.4069 58.0511 47.2449 58.4651 47.2989C60.1031 47.4969 61.6691 49.2249 61.8851 51.0789L61.9751 51.9249L60.9311 52.6089C57.9791 54.5349 54.0191 54.5349 51.0671 52.6089L50.0231 51.9249L50.1131 51.0789C50.3291 49.2789 51.5351 47.8569 53.2991 47.3169C53.5511 47.2449 53.8031 47.2089 53.8751 47.2089C53.9471 47.2269 54.3611 47.8029 54.7931 48.5049ZM43.0391 53.0949C43.6151 53.5089 44.0291 54.5169 43.8671 55.1469C43.6871 55.8489 43.0571 56.4969 42.3371 56.7129C41.0231 57.1089 39.7991 56.1009 39.7991 54.6069C39.7991 53.6349 40.7531 52.7349 41.7791 52.7349C42.2471 52.7349 42.7331 52.8789 43.0391 53.0949ZM71.5871 53.3469C73.3511 55.1109 71.1011 57.7749 69.0131 56.4069C67.3571 55.3449 68.1671 52.7349 70.1651 52.7349C70.8491 52.7349 71.0651 52.8249 71.5871 53.3469ZM47.1791 61.6629C48.5831 62.4909 48.5831 64.5249 47.1791 65.2449C45.3431 66.1989 43.4351 64.2909 44.3891 62.4549C44.9111 61.4649 46.2071 61.1049 47.1791 61.6629ZM66.8711 61.7169C67.8611 62.3649 68.1311 63.4089 67.6091 64.4349C66.8891 65.8389 64.7291 65.8389 64.0091 64.4349C63.0371 62.5629 65.1431 60.5829 66.8711 61.7169ZM57.0971 64.4889C58.3211 65.2989 58.3391 66.9009 57.1691 67.8189C55.6391 69.0249 53.3351 67.2429 54.0911 65.4429C54.3971 64.7229 55.2971 64.0749 56.0171 64.0749C56.2691 64.0749 56.7551 64.2549 57.0971 64.4889Z" fill="white"/>
<path d="M54.3783 37.5429C52.0923 38.5329 51.3903 41.3949 52.9203 43.5009C54.0903 45.1029 56.6463 45.4629 58.3743 44.2389C60.2103 42.9609 60.3543 39.7749 58.6623 38.2089C57.6723 37.2909 55.6923 36.9669 54.3783 37.5429ZM57.1863 38.8029C57.9963 39.1989 58.5723 40.1529 58.5723 41.1609C58.5723 42.0609 58.1943 42.6909 57.2583 43.3209C55.7103 44.3829 53.4243 43.0869 53.4243 41.1609C53.4243 39.1809 55.3863 37.9569 57.1863 38.8029Z" fill="white"/>
</g>
<defs>
<filter id="filter0_d_1469_1655" x="0.0546875" y="0.0148926" width="111.891" height="112" filterUnits="userSpaceOnUse" color-interpolation-filters="sRGB">
<feFlood flood-opacity="0" result="BackgroundImageFix"/>
<feColorMatrix in="SourceAlpha" type="matrix" values="0 0 0 0 0 0 0 0 0 0 0 0 0 0 0 0 0 0 127 0" result="hardAlpha"/>
<feOffset dy="4"/>
<feGaussianBlur stdDeviation="8"/>
<feComposite in2="hardAlpha" operator="out"/>
<feColorMatrix type="matrix" values="0 0 0 0 0 0 0 0 0 0 0 0 0 0 0 0 0 0 0.15 0"/>
<feBlend mode="normal" in2="BackgroundImageFix" result="effect1_dropShadow_1469_1655"/>
<feBlend mode="normal" in="SourceGraphic" in2="effect1_dropShadow_1469_1655" result="shape"/>
</filter>
<linearGradient id="paint0_linear_1469_1655" x1="55.9459" y1="12.0149" x2="57.7666" y2="153.835" gradientUnits="userSpaceOnUse">
<stop stop-color="#1643C3"/>
<stop offset="1"/>
</linearGradient>
<clipPath id="clip0_1469_1655">
<rect width="36" height="36" fill="white" transform="translate(38 34.0149)"/>
</clipPath>
</defs>
</svg>
