<svg width="112" height="113" viewBox="0 0 112 113" fill="none" xmlns="http://www.w3.org/2000/svg">
<g filter="url(#filter0_d_1469_1622)">
<path d="M56.0542 92.0149C78.1156 92.0149 95.9758 74.1063 95.9459 52.0149C95.916 29.9235 78.0074 12.0149 55.9459 12.0149C33.8844 12.0149 16.0242 29.9235 16.0541 52.0149C16.084 74.1063 33.9927 92.0149 56.0542 92.0149Z" fill="url(#paint0_linear_1469_1622)"/>
<path d="M93.4459 52.0149C93.474 72.7288 76.7284 89.5149 56.0508 89.5149C35.3732 89.5149 18.5821 72.7288 18.5541 52.0149C18.5261 31.301 35.2717 14.5149 55.9493 14.5149C76.6269 14.5149 93.4179 31.301 93.4459 52.0149Z" stroke="white" stroke-width="5"/>
</g>
<path d="M62.1799 39.7949C62.2999 40.0149 62.3999 40.3749 62.3999 40.5949C62.3999 40.8949 62.5599 40.9949 63.0399 41.0549C63.5999 41.0949 63.7199 41.2149 63.7599 41.6749C63.8399 42.3549 63.4999 42.8149 62.8999 42.8149C62.5599 42.8149 62.4199 42.9549 62.3399 43.3949C62.0799 44.6349 60.5999 44.6349 60.5999 43.4149C60.5999 42.8949 60.5199 42.8149 60.0199 42.8149C59.2999 42.8149 58.9599 42.4149 59.0399 41.6749C59.0999 41.1949 59.1999 41.1149 59.8399 41.0549C60.5399 40.9949 60.5799 40.9549 60.6399 40.2549C60.6999 39.5949 60.7599 39.5149 61.3399 39.4549C61.7999 39.4149 62.0199 39.4949 62.1799 39.7949Z" fill="white"/>
<path d="M55.5588 39.6549C55.6988 39.7949 55.7988 40.1549 55.7988 40.4549C55.7988 40.9349 55.8788 41.0149 56.3588 41.0149C56.6588 41.0149 57.0188 41.1149 57.1588 41.2549C57.7188 41.8149 57.1788 42.8149 56.2788 42.8149C55.9188 42.8149 55.7988 42.9149 55.7988 43.2549C55.7988 43.8149 55.5988 44.0949 55.1388 44.2749C54.5388 44.4949 53.9988 44.0749 53.9988 43.4149C53.9988 42.9349 53.9188 42.8149 53.5788 42.8149C52.9188 42.8149 52.3988 42.4349 52.3988 41.9549C52.3988 41.3349 52.7588 41.0149 53.4388 41.0149C53.9188 41.0149 53.9988 40.9349 53.9988 40.4549C53.9988 39.7949 54.3188 39.4149 54.8988 39.4149C55.1388 39.4149 55.4188 39.5149 55.5588 39.6549Z" fill="white"/>
<path d="M58.7588 44.655C58.8988 44.795 58.9988 45.375 58.9988 45.955V47.015H60.0788C61.2188 47.015 61.7988 47.335 61.7988 47.995C61.7988 48.595 61.3588 48.815 60.1588 48.815H58.9988V49.975C58.9988 51.215 58.7788 51.615 58.0988 51.615C57.4188 51.615 57.1988 51.215 57.1988 49.975V48.835L55.9388 48.775C54.7388 48.715 54.6988 48.695 54.6388 48.115C54.5388 47.335 55.0188 47.015 56.2388 47.015H57.1988V45.955C57.1988 44.815 57.4388 44.415 58.0988 44.415C58.3388 44.415 58.6188 44.515 58.7588 44.655Z" fill="white"/>
<path d="M72.2997 50.4949C73.4597 50.9949 74.0397 52.7149 73.4197 53.8549C72.9997 54.6749 63.4997 61.0149 60.3997 62.5549C59.0797 63.2149 58.6797 63.3149 57.1997 63.3749C56.1397 63.4149 54.3797 63.2949 52.6197 63.0349C49.8397 62.6349 46.2797 62.4949 45.0197 62.7349C44.4797 62.8549 44.3997 62.9549 44.3997 63.5149C44.3997 64.5549 44.1397 64.6349 41.1797 64.5749L38.4997 64.5149V57.8149V51.1149H41.3997H44.2997L44.3597 51.8749C44.4197 52.5149 44.4797 52.6149 44.7597 52.5149C46.9197 51.6949 49.9397 51.6149 52.7197 52.3149C54.3997 52.7349 55.1397 52.8149 57.7597 52.8149C60.9197 52.8149 61.7397 52.9949 62.1597 53.7349C62.3197 54.0149 62.9197 53.7749 66.3197 52.1349C70.4797 50.1349 71.0997 49.9749 72.2997 50.4949ZM66.6997 54.0149C64.3997 55.1349 62.2397 56.2949 61.8597 56.6149C61.4997 56.9349 60.9997 57.2549 60.7397 57.3149C59.7797 57.5149 51.6797 57.7549 51.3397 57.5749C50.9597 57.3749 50.8597 56.3149 51.2197 56.0949C51.3397 56.0149 53.4397 55.8749 55.8797 55.7749C58.2997 55.6549 60.4197 55.4749 60.5597 55.3749C60.7397 55.2149 60.7397 55.0949 60.5797 54.8949C60.3997 54.6749 59.6197 54.6149 57.2197 54.6149C54.5197 54.6149 53.8597 54.5349 52.2997 54.1149C50.0797 53.4949 48.4797 53.4949 46.1997 54.0749C44.5197 54.5149 44.4997 54.5149 44.3997 55.2149C44.3197 55.8149 44.2197 55.9149 43.6797 55.9749C42.8397 56.0549 42.6397 55.7149 42.5397 54.1149C42.5197 53.3349 42.4797 55.0149 42.4797 57.8149C42.4797 60.6149 42.4997 62.3749 42.5397 61.7149C42.5797 61.0549 42.6397 60.3149 42.6997 60.0749C42.9197 59.1149 44.3997 59.3749 44.3997 60.3749V60.9149L47.1397 60.8549C49.1797 60.7949 50.6597 60.8949 52.9397 61.2149C56.8597 61.7749 57.8597 61.7149 59.7997 60.7549C62.1997 59.5749 71.5397 53.3949 71.7397 52.8549C71.8597 52.5549 71.4597 52.0149 71.0997 52.0149C70.9597 52.0149 68.9797 52.9149 66.6997 54.0149ZM39.9997 57.8149C39.9997 62.1349 40.0397 62.8149 40.2997 62.8149C40.5597 62.8149 40.5997 62.1349 40.5997 57.8149C40.5997 53.4949 40.5597 52.8149 40.2997 52.8149C40.0397 52.8149 39.9997 53.4949 39.9997 57.8149Z" fill="white"/>
<defs>
<filter id="filter0_d_1469_1622" x="0.0546875" y="0.0148926" width="111.891" height="112" filterUnits="userSpaceOnUse" color-interpolation-filters="sRGB">
<feFlood flood-opacity="0" result="BackgroundImageFix"/>
<feColorMatrix in="SourceAlpha" type="matrix" values="0 0 0 0 0 0 0 0 0 0 0 0 0 0 0 0 0 0 127 0" result="hardAlpha"/>
<feOffset dy="4"/>
<feGaussianBlur stdDeviation="8"/>
<feComposite in2="hardAlpha" operator="out"/>
<feColorMatrix type="matrix" values="0 0 0 0 0 0 0 0 0 0 0 0 0 0 0 0 0 0 0.15 0"/>
<feBlend mode="normal" in2="BackgroundImageFix" result="effect1_dropShadow_1469_1622"/>
<feBlend mode="normal" in="SourceGraphic" in2="effect1_dropShadow_1469_1622" result="shape"/>
</filter>
<linearGradient id="paint0_linear_1469_1622" x1="55.9459" y1="12.0149" x2="57.7666" y2="153.835" gradientUnits="userSpaceOnUse">
<stop stop-color="#1643C3"/>
<stop offset="1"/>
</linearGradient>
</defs>
</svg>
