<svg width="112" height="113" viewBox="0 0 112 113" fill="none" xmlns="http://www.w3.org/2000/svg">
<g filter="url(#filter0_d_1469_1666)">
<path d="M56.0542 92.0149C78.1156 92.0149 95.9758 74.1063 95.9459 52.0149C95.916 29.9235 78.0074 12.0149 55.9459 12.0149C33.8844 12.0149 16.0242 29.9235 16.0541 52.0149C16.084 74.1063 33.9927 92.0149 56.0542 92.0149Z" fill="url(#paint0_linear_1469_1666)"/>
<path d="M93.4459 52.0149C93.474 72.7288 76.7284 89.5149 56.0508 89.5149C35.3732 89.5149 18.5821 72.7288 18.5541 52.0149C18.5261 31.301 35.2717 14.5149 55.9493 14.5149C76.6269 14.5149 93.4179 31.301 93.4459 52.0149Z" stroke="white" stroke-width="5"/>
</g>
<g clip-path="url(#clip0_1469_1666)">
<path d="M42.7965 33.0891C41.7129 33.3192 41.4532 33.4899 41.4532 33.9723C41.4532 34.195 41.5793 34.3508 42.7446 35.5309L44.036 36.8372L43.8059 38.2176L43.5758 39.5907L42.2028 39.8208L40.8223 40.0508L39.5161 38.7594C38.2989 37.5571 38.1876 37.468 37.9352 37.468C37.2895 37.468 37.0372 38.2251 37.0372 40.177C37.0372 41.268 37.0594 41.5204 37.2079 42.0251C37.9204 44.504 39.761 46.3446 42.2399 47.0571C43.0415 47.2872 45.0454 47.302 45.8989 47.0868L46.4407 46.9458L49.4243 49.9294L52.4004 52.9055L51.6805 53.6255L50.9532 54.3454L50.0774 53.477C49.2239 52.6383 49.1868 52.6087 48.8676 52.6087C48.5559 52.6087 48.5262 52.6309 47.5243 53.6329C46.3294 54.8204 46.3442 54.7907 46.7227 55.9114C46.8415 56.2751 46.9305 56.5794 46.9231 56.5942C46.9083 56.6016 46.604 56.5126 46.2403 56.3938C45.0231 55.9856 45.4758 55.6813 41.6536 59.4887C39.8204 61.3219 38.1727 63.0067 37.9946 63.2368C37.5938 63.7489 37.2747 64.4169 37.104 65.0774C36.9184 65.7973 36.9852 67.1704 37.2376 67.8383C37.7645 69.2411 38.8704 70.3321 40.2583 70.8071C40.6813 70.9555 40.8891 70.9778 41.8243 70.9778C42.7965 70.9704 42.945 70.9555 43.3977 70.7774C44.4442 70.384 44.5926 70.2505 48.3036 66.5618C52.3708 62.5169 52.0368 62.9993 51.6211 61.7747C51.5024 61.411 51.4133 61.1067 51.4208 61.0919C51.4356 61.0844 51.7399 61.1735 52.1036 61.2922C53.2243 61.6708 53.1946 61.6856 54.3821 60.4907C55.384 59.4887 55.4063 59.459 55.4063 59.1473C55.4063 58.8282 55.3766 58.7911 54.5379 57.9376L53.6696 57.0618L54.3895 56.3344L55.1094 55.6145L57.0391 57.5442L58.9688 59.4739L58.7833 60.0231C58.3454 61.3219 58.2415 63.029 58.5235 64.4094C59.1915 67.6676 61.7075 70.1837 65.0176 70.8739C65.9305 71.0669 67.4446 71.0669 68.3575 70.8739C71.6825 70.1762 74.1614 67.6973 74.859 64.3723C75.052 63.4594 75.052 61.9454 74.859 61.0325C74.1614 57.7075 71.6825 55.2286 68.3575 54.5309C67.0438 54.2563 65.2848 54.3676 64.0083 54.7981L63.459 54.9837L61.5294 53.054L59.5997 51.1243L64.2012 46.5227L68.8028 41.9212H70.2649C71.5711 41.9212 71.7493 41.9063 71.868 41.7876C71.9348 41.7208 72.6696 40.4368 73.4934 38.945C74.718 36.7333 75.0001 36.1692 75.0001 35.9391C75.0001 35.6719 74.9333 35.5903 73.679 34.336C72.4247 33.0817 72.3504 33.0149 72.0758 33.0149C71.8383 33.0149 71.2891 33.2895 69.0329 34.5438C67.5188 35.3825 66.2348 36.1247 66.1903 36.1915C66.1161 36.2731 66.0938 36.711 66.0938 37.7575V39.2122L61.4922 43.8137L56.8907 48.4153L53.9145 45.4391L50.9309 42.4555L51.0719 41.9137C51.2872 41.0602 51.2723 39.0563 51.0422 38.2547C50.3297 35.7907 48.4965 33.9501 46.0473 33.2301C45.6094 33.104 45.2606 33.0669 44.3106 33.0446C43.6575 33.0372 42.9747 33.052 42.7965 33.0891ZM45.5723 34.4251C45.7801 34.477 46.2774 34.6774 46.6856 34.8704C47.9547 35.4864 48.7711 36.3028 49.3946 37.5794C49.8844 38.5813 50.018 39.2344 49.9735 40.3848C49.9438 41.0973 49.8919 41.4165 49.7434 41.884C49.6321 42.2106 49.543 42.5743 49.543 42.7005C49.543 42.8934 50.3001 43.6801 55.8961 49.2762L62.2493 55.6294L61.7743 55.9633C61.1731 56.3938 60.379 57.188 59.9485 57.7891L59.6145 58.2641L53.2614 51.911C46.2551 44.9047 46.8415 45.4169 46.1215 45.6766C45.1196 46.0329 43.8727 46.1145 42.8633 45.8919C42.559 45.8251 41.9727 45.6098 41.5645 45.4094C40.2879 44.786 39.479 43.977 38.8555 42.7005C38.4176 41.795 38.2618 41.127 38.2618 40.1325V39.368L39.2489 40.3477C40.429 41.513 40.1395 41.4462 42.4403 41.0676C44.3106 40.7633 44.5407 40.704 44.652 40.5036C44.7559 40.3032 45.3126 37.0153 45.3126 36.5848C45.3126 36.2657 45.2903 36.236 44.3403 35.2712L43.3606 34.284L43.7614 34.2618C44.2586 34.2321 45.0825 34.3063 45.5723 34.4251ZM72.7661 35.2712L73.6047 36.1098L72.3208 38.4254L71.0368 40.7337H69.5895H68.1348L63.4071 45.4614L58.6719 50.1965L58.2489 49.7661L57.8184 49.343L62.5536 44.6079L67.2813 39.8801V38.4254V36.9782L69.5672 35.7016C70.8215 35.004 71.8606 34.4325 71.8829 34.4325C71.9051 34.4251 72.2985 34.8036 72.7661 35.2712ZM53.7735 54.2786L54.1817 54.6868L53.4544 55.4141L52.7344 56.134L52.3114 55.7036L51.8809 55.2805L52.586 54.5755C52.9719 54.1895 53.3059 53.8704 53.3282 53.8704C53.3504 53.8704 53.5508 54.0559 53.7735 54.2786ZM51.3985 56.6536L53.8848 59.1399L53.3653 59.6594L52.8458 60.179L52.2669 59.9934C51.9477 59.8895 51.5469 59.8079 51.3762 59.8079C50.7083 59.8153 50.1368 60.3868 50.1368 61.077C50.1368 61.2626 50.2184 61.6633 50.3223 61.9676L50.5079 62.5169L47.2274 65.8047C44.0805 68.9516 43.9172 69.1075 43.3458 69.3895C41.5571 70.2801 39.4493 69.538 38.5735 67.6973C38.3286 67.1704 38.2989 67.0516 38.2766 66.3762C38.2469 65.5376 38.3879 64.9512 38.7813 64.3352C38.9001 64.1497 40.4586 62.5391 42.2473 60.7579L45.4981 57.5071L46.077 57.6926C46.3961 57.7965 46.7969 57.8782 46.9676 57.8782C47.6282 57.8708 48.1997 57.2993 48.2071 56.6387C48.2071 56.468 48.1254 56.0672 48.0215 55.7481L47.8434 55.1692L48.3333 54.6645C48.6079 54.3899 48.8528 54.1672 48.8751 54.1672C48.8973 54.1672 50.0329 55.288 51.3985 56.6536ZM67.9047 55.7333C70.4801 56.1489 72.6844 58.1305 73.4934 60.7505C73.679 61.3516 73.6938 61.5001 73.6938 62.7024C73.6938 63.9047 73.679 64.0532 73.4934 64.6544C72.9145 66.5247 71.6973 68.0239 70.0051 68.9368C68.9364 69.5157 67.9047 69.7606 66.6133 69.7606C63.5333 69.7532 60.7797 67.6676 59.8965 64.6692C59.6516 63.8528 59.5626 62.4204 59.711 61.5446C60.1192 58.9915 62.0489 56.7649 64.5352 55.9633C65.6485 55.6071 66.6579 55.5403 67.9047 55.7333Z" fill="white"/>
<path d="M45.8691 41.9211L45.4238 42.3665L46.0398 42.9825L46.6484 43.5911L47.1086 43.1235L47.5762 42.6633L46.9824 42.0696C46.6559 41.743 46.3738 41.4758 46.3516 41.4758C46.3293 41.4758 46.1141 41.6762 45.8691 41.9211Z" fill="white"/>
<path d="M42.752 62.554L39.4863 65.8196L39.9539 66.2797L40.4141 66.7473L43.6945 63.4668L46.9824 60.179L46.5371 59.7336C46.2922 59.4887 46.077 59.2883 46.0547 59.2883C46.0324 59.2883 44.548 60.7579 42.752 62.554Z" fill="white"/>
<path d="M44.5332 64.3352L41.2676 67.6008L41.7352 68.061L42.1953 68.5286L45.4758 65.2481L48.7637 61.9602L48.3184 61.5149C48.0734 61.27 47.8582 61.0696 47.8359 61.0696C47.8137 61.0696 46.3293 62.5391 44.5332 64.3352Z" fill="white"/>
<path d="M64.5723 59.4813C63.5555 59.9934 62.6723 60.4684 62.6277 60.5352C62.5535 60.6243 62.5312 61.1735 62.5312 62.6727C62.5312 63.786 62.5535 64.7508 62.5758 64.8176C62.6426 64.9883 66.4055 66.8586 66.6875 66.8586C66.9695 66.8586 70.7324 64.9883 70.7992 64.8176C70.8586 64.6543 70.8586 60.7504 70.7992 60.5872C70.725 60.4016 66.9621 58.5461 66.6727 58.5536C66.5168 58.5536 65.7672 58.8875 64.5723 59.4813ZM68.209 60.602L69.6562 61.3293V62.7024V64.0754L68.1719 64.8176L66.6875 65.5598L65.2031 64.8176L63.7188 64.0754V62.7024V61.3293L65.1512 60.6094C65.9305 60.2161 66.6207 59.8895 66.6652 59.8895C66.7172 59.8821 67.4148 60.2086 68.209 60.602Z" fill="white"/>
</g>
<defs>
<filter id="filter0_d_1469_1666" x="0.0546875" y="0.0148926" width="111.891" height="112" filterUnits="userSpaceOnUse" color-interpolation-filters="sRGB">
<feFlood flood-opacity="0" result="BackgroundImageFix"/>
<feColorMatrix in="SourceAlpha" type="matrix" values="0 0 0 0 0 0 0 0 0 0 0 0 0 0 0 0 0 0 127 0" result="hardAlpha"/>
<feOffset dy="4"/>
<feGaussianBlur stdDeviation="8"/>
<feComposite in2="hardAlpha" operator="out"/>
<feColorMatrix type="matrix" values="0 0 0 0 0 0 0 0 0 0 0 0 0 0 0 0 0 0 0.15 0"/>
<feBlend mode="normal" in2="BackgroundImageFix" result="effect1_dropShadow_1469_1666"/>
<feBlend mode="normal" in="SourceGraphic" in2="effect1_dropShadow_1469_1666" result="shape"/>
</filter>
<linearGradient id="paint0_linear_1469_1666" x1="55.9459" y1="12.0149" x2="57.7666" y2="153.835" gradientUnits="userSpaceOnUse">
<stop stop-color="#1643C3"/>
<stop offset="1"/>
</linearGradient>
<clipPath id="clip0_1469_1666">
<rect width="38" height="38" fill="white" transform="translate(37 33.0149)"/>
</clipPath>
</defs>
</svg>
